<?xml version="1.0" encoding="UTF-8"?>
<svg xmlns="http://www.w3.org/2000/svg" xmlns:xlink="http://www.w3.org/1999/xlink" width="595pt" height="842pt" viewBox="0 0 595 842" version="1.1">
<g id="surface1">
<path style="fill:none;stroke-width:7.5;stroke-linecap:round;stroke-linejoin:round;stroke:rgb(0%,0%,0%);stroke-opacity:1;stroke-miterlimit:10;" d="M 3082.5 2437.5 L 3082.5 4687.5 L 3878.007812 5483.007812 L 4440.507812 5483.007812 L 4639.375 5284.101562 L 4639.375 5143.515625 L 4589.648438 5093.789062 L 4554.492188 5093.789062 L 4589.648438 5093.789062 L 4589.648438 5058.632812 L 4589.648438 5093.789062 L 4639.375 5143.515625 L 4689.101562 5093.789062 L 4689.101562 5058.632812 L 4689.101562 5093.789062 L 4724.257812 5093.789062 L 4689.101562 5093.789062 L 4639.375 5143.515625 L 4639.375 5284.101562 L 4780 5284.101562 L 4829.726562 5234.414062 L 4829.726562 5199.257812 L 4829.726562 5234.414062 L 4864.882812 5234.414062 L 4829.726562 5234.414062 L 4780 5284.101562 L 4829.726562 5333.828125 L 4864.882812 5333.828125 L 4829.726562 5333.828125 L 4829.726562 5368.984375 L 4829.726562 5333.828125 L 4780 5284.101562 L 4639.375 5284.101562 L 4440.507812 5483.007812 L 4639.375 5681.875 L 4780 5681.875 L 4829.726562 5632.148438 L 4829.726562 5596.992188 L 4829.726562 5632.148438 L 4864.882812 5632.148438 L 4829.726562 5632.148438 L 4780 5681.875 L 4829.726562 5731.601562 " transform="matrix(0.1,0,0,-0.1,0,842)"/>
<path style="fill:none;stroke-width:7.5;stroke-linecap:round;stroke-linejoin:round;stroke:rgb(0%,0%,0%);stroke-opacity:1;stroke-miterlimit:10;" d="M 4829.726562 5731.601562 L 4864.882812 5731.601562 L 4829.726562 5731.601562 L 4829.726562 5766.757812 L 4829.726562 5731.601562 L 4780 5681.875 L 4639.375 5681.875 L 4639.375 5822.5 L 4689.101562 5872.226562 L 4724.257812 5872.226562 L 4689.101562 5872.226562 L 4689.101562 5907.382812 L 4689.101562 5872.226562 L 4639.375 5822.5 L 4589.648438 5872.226562 L 4589.648438 5907.382812 L 4589.648438 5872.226562 L 4554.492188 5872.226562 L 4589.648438 5872.226562 L 4639.375 5822.5 L 4639.375 5681.875 L 4440.507812 5483.007812 L 3878.007812 5483.007812 L 3878.007812 6045.507812 L 4076.875 6244.375 L 4217.5 6244.375 L 4267.226562 6194.648438 L 4267.226562 6159.492188 L 4267.226562 6194.648438 L 4302.382812 6194.648438 L 4267.226562 6194.648438 L 4217.5 6244.375 L 4267.226562 6294.101562 L 4302.382812 6294.101562 L 4267.226562 6294.101562 L 4267.226562 6329.257812 L 4267.226562 6294.101562 L 4217.5 6244.375 L 4076.875 6244.375 L 4076.875 6385 L 4126.601562 6434.726562 L 4161.757812 6434.726562 L 4126.601562 6434.726562 " transform="matrix(0.1,0,0,-0.1,0,842)"/>
<path style="fill:none;stroke-width:7.5;stroke-linecap:round;stroke-linejoin:round;stroke:rgb(0%,0%,0%);stroke-opacity:1;stroke-miterlimit:10;" d="M 4126.601562 6434.726562 L 4126.601562 6469.882812 L 4126.601562 6434.726562 L 4076.875 6385 L 4027.148438 6434.726562 L 4027.148438 6469.882812 L 4027.148438 6434.726562 L 3991.992188 6434.726562 L 4027.148438 6434.726562 L 4076.875 6385 L 4076.875 6244.375 L 3878.007812 6045.507812 L 3679.101562 6244.375 L 3679.101562 6385 L 3728.828125 6434.726562 L 3763.984375 6434.726562 L 3728.828125 6434.726562 L 3728.828125 6469.882812 L 3728.828125 6434.726562 L 3679.101562 6385 L 3629.414062 6434.726562 L 3629.414062 6469.882812 L 3629.414062 6434.726562 L 3594.257812 6434.726562 L 3629.414062 6434.726562 L 3679.101562 6385 L 3679.101562 6244.375 L 3538.515625 6244.375 L 3488.789062 6294.101562 L 3488.789062 6329.257812 L 3488.789062 6294.101562 L 3453.632812 6294.101562 L 3488.789062 6294.101562 L 3538.515625 6244.375 L 3488.789062 6194.648438 L 3453.632812 6194.648438 L 3488.789062 6194.648438 L 3488.789062 6159.492188 L 3488.789062 6194.648438 L 3538.515625 6244.375 L 3679.101562 6244.375 L 3878.007812 6045.507812 L 3878.007812 5483.007812 " transform="matrix(0.1,0,0,-0.1,0,842)"/>
<path style="fill:none;stroke-width:7.5;stroke-linecap:round;stroke-linejoin:round;stroke:rgb(0%,0%,0%);stroke-opacity:1;stroke-miterlimit:10;" d="M 3878.007812 5483.007812 L 3082.5 4687.5 L 2286.992188 5483.007812 L 2286.992188 6045.507812 L 2485.898438 6244.375 L 2626.484375 6244.375 L 2676.210938 6194.648438 L 2676.210938 6159.492188 L 2676.210938 6194.648438 L 2711.367188 6194.648438 L 2676.210938 6194.648438 L 2626.484375 6244.375 L 2676.210938 6294.101562 L 2711.367188 6294.101562 L 2676.210938 6294.101562 L 2676.210938 6329.257812 L 2676.210938 6294.101562 L 2626.484375 6244.375 L 2485.898438 6244.375 L 2485.898438 6385 L 2535.585938 6434.726562 L 2570.742188 6434.726562 L 2535.585938 6434.726562 L 2535.585938 6469.882812 L 2535.585938 6434.726562 L 2485.898438 6385 L 2436.171875 6434.726562 L 2436.171875 6469.882812 L 2436.171875 6434.726562 L 2401.015625 6434.726562 L 2436.171875 6434.726562 L 2485.898438 6385 L 2485.898438 6244.375 L 2286.992188 6045.507812 L 2088.125 6244.375 L 2088.125 6385 L 2137.851562 6434.726562 L 2173.007812 6434.726562 L 2137.851562 6434.726562 L 2137.851562 6469.882812 L 2137.851562 6434.726562 L 2088.125 6385 L 2038.398438 6434.726562 " transform="matrix(0.1,0,0,-0.1,0,842)"/>
<path style="fill:none;stroke-width:7.5;stroke-linecap:round;stroke-linejoin:round;stroke:rgb(0%,0%,0%);stroke-opacity:1;stroke-miterlimit:10;" d="M 2038.398438 6434.726562 L 2038.398438 6469.882812 L 2038.398438 6434.726562 L 2003.242188 6434.726562 L 2038.398438 6434.726562 L 2088.125 6385 L 2088.125 6244.375 L 1947.5 6244.375 L 1897.773438 6294.101562 L 1897.773438 6329.257812 L 1897.773438 6294.101562 L 1862.617188 6294.101562 L 1897.773438 6294.101562 L 1947.5 6244.375 L 1897.773438 6194.648438 L 1862.617188 6194.648438 L 1897.773438 6194.648438 L 1897.773438 6159.492188 L 1897.773438 6194.648438 L 1947.5 6244.375 L 2088.125 6244.375 L 2286.992188 6045.507812 L 2286.992188 5483.007812 L 1724.492188 5483.007812 L 1525.625 5681.875 L 1525.625 5822.5 L 1575.351562 5872.226562 L 1610.507812 5872.226562 L 1575.351562 5872.226562 L 1575.351562 5907.382812 L 1575.351562 5872.226562 L 1525.625 5822.5 L 1475.898438 5872.226562 L 1475.898438 5907.382812 L 1475.898438 5872.226562 L 1440.742188 5872.226562 L 1475.898438 5872.226562 L 1525.625 5822.5 L 1525.625 5681.875 L 1385 5681.875 L 1335.273438 5731.601562 L 1335.273438 5766.757812 L 1335.273438 5731.601562 " transform="matrix(0.1,0,0,-0.1,0,842)"/>
<path style="fill:none;stroke-width:7.5;stroke-linecap:round;stroke-linejoin:round;stroke:rgb(0%,0%,0%);stroke-opacity:1;stroke-miterlimit:10;" d="M 1335.273438 5731.601562 L 1300.117188 5731.601562 L 1335.273438 5731.601562 L 1385 5681.875 L 1335.273438 5632.148438 L 1300.117188 5632.148438 L 1335.273438 5632.148438 L 1335.273438 5596.992188 L 1335.273438 5632.148438 L 1385 5681.875 L 1525.625 5681.875 L 1724.492188 5483.007812 L 1525.625 5284.101562 L 1385 5284.101562 L 1335.273438 5333.828125 L 1335.273438 5368.984375 L 1335.273438 5333.828125 L 1300.117188 5333.828125 L 1335.273438 5333.828125 L 1385 5284.101562 L 1335.273438 5234.414062 L 1300.117188 5234.414062 L 1335.273438 5234.414062 L 1335.273438 5199.257812 L 1335.273438 5234.414062 L 1385 5284.101562 L 1525.625 5284.101562 L 1525.625 5143.515625 L 1475.898438 5093.789062 L 1440.742188 5093.789062 L 1475.898438 5093.789062 L 1475.898438 5058.632812 L 1475.898438 5093.789062 L 1525.625 5143.515625 L 1575.351562 5093.789062 L 1575.351562 5058.632812 L 1575.351562 5093.789062 L 1610.507812 5093.789062 L 1575.351562 5093.789062 L 1525.625 5143.515625 L 1525.625 5284.101562 L 1724.492188 5483.007812 L 2286.992188 5483.007812 " transform="matrix(0.1,0,0,-0.1,0,842)"/>
<path style="fill:none;stroke-width:7.5;stroke-linecap:round;stroke-linejoin:round;stroke:rgb(0%,0%,0%);stroke-opacity:1;stroke-miterlimit:10;" d="M 2286.992188 5483.007812 L 3082.5 4687.5 L 3082.5 2437.5 " transform="matrix(0.1,0,0,-0.1,0,842)"/>
<path style="fill-rule:evenodd;fill:rgb(0%,0%,0%);fill-opacity:1;stroke-width:7.5;stroke-linecap:round;stroke-linejoin:round;stroke:rgb(0%,0%,0%);stroke-opacity:1;stroke-miterlimit:10;" d="M 3082.5 2437.5 L 3045 2370 L 3082.5 2385 L 3120 2370 L 3082.5 2437.5 " transform="matrix(0.1,0,0,-0.1,0,842)"/>
</g>
</svg>
